<svg width="256" height="256" viewBox="0 0 256 256" fill="none" xmlns="http://www.w3.org/2000/svg">
<path fill-rule="evenodd" clip-rule="evenodd" d="M124.5 54C110.505 54 99 65.5512 99 80C99 94.4488 110.505 106 124.5 106C138.495 106 150 94.4488 150 80C150 65.5512 138.495 54 124.5 54ZM87 80C87 59.1026 103.701 42 124.5 42C145.299 42 162 59.1026 162 80C162 100.897 145.299 118 124.5 118C103.701 118 87 100.897 87 80Z" fill="#191919"/>
<path fill-rule="evenodd" clip-rule="evenodd" d="M72.5 161C58.5055 161 47 172.551 47 187C47 201.449 58.5055 213 72.5 213C86.4945 213 98 201.449 98 187C98 172.551 86.4945 161 72.5 161ZM35 187C35 166.103 51.7006 149 72.5 149C93.2994 149 110 166.103 110 187C110 207.897 93.2994 225 72.5 225C51.7006 225 35 207.897 35 187Z" fill="#191919"/>
<path fill-rule="evenodd" clip-rule="evenodd" d="M176.5 161C162.505 161 151 172.551 151 187C151 201.449 162.505 213 176.5 213C190.495 213 202 201.449 202 187C202 172.551 190.495 161 176.5 161ZM139 187C139 166.103 155.701 149 176.5 149C197.299 149 214 166.103 214 187C214 207.897 197.299 225 176.5 225C155.701 225 139 207.897 139 187Z" fill="#191919"/>
<path d="M83.3896 158.669C80.3588 156.963 79.2357 153.095 80.881 150.031L103.373 108.141C105.019 105.076 108.809 103.975 111.84 105.682C114.871 107.388 115.994 111.255 114.349 114.319L91.8565 156.21C90.2112 159.274 86.4205 160.375 83.3896 158.669Z" fill="#191919"/>
<path d="M102 188C102 184.686 104.686 182 108 182H141C144.314 182 147 184.686 147 188C147 191.314 144.314 194 141 194H108C104.686 194 102 191.314 102 188Z" fill="#191919"/>
</svg>
